# xmcd
#
# Track frame offsets:
#	150
#	15825
#	25750
#	47412
#	77812
#	105700
#	127025
#	138400
#	153500
#	179000
#	199250
#	218462
#	237412
#	259275
#
# Disc length: 3695 seconds
# Revision: 0
# Processed by: cddbd v1.5.2PL0 Copyright (c) Steve Scherf et al.
# Submitted via: dBpowerAMP V12.0
#
DISCID=bb0e6d0e
DTITLE=Gibson Brothers - The Hit History
DYEAR=1989
DGENRE=Latin Dance
TTITLE0=Cuba
TTITLE1=Latin America
TTITLE2=Mariana
TTITLE3=Non Stop Dance
TTITLE4=Rio Brasilia
TTITLE5=Better Do It Salsa
TTITLE6=Oooh, What A Life
TTITLE7=Quarter Latin
TTITLE8=Sheela
TTITLE9=Limbo
TTITLE10=A Train to Bombay
TTITLE11=Dancing the Mambo
TTITLE12=Metropolis
TTITLE13=Que Sera Mi Vida
EXTD=
EXTT0=
EXTT1=
EXTT2=
EXTT3=
EXTT4=
EXTT5=
EXTT6=
EXTT7=
EXTT8=
EXTT9=
EXTT10=
EXTT11=
EXTT12=
EXTT13=
PLAYORDER=
